<svg version="1.1" xmlns="http://www.w3.org/2000/svg" xmlns:xlink="http://www.w3.org/1999/xlink" width="512.000000pt" height="512.000000pt" viewBox="0,0,256,256"><g fill="#ffffff" fill-rule="nonzero" stroke="none" stroke-width="1" stroke-linecap="butt" stroke-linejoin="miter" stroke-miterlimit="10" stroke-dasharray="" stroke-dashoffset="0" font-family="none" font-weight="none" font-size="none" text-anchor="none" style="mix-blend-mode: normal"><g transform="translate(0,-0.00013) scale(0.5,0.5)"><g transform="translate(0,512) scale(0.1,-0.1)"><path d="M698,5105c-127,-32 -168,-63 -394,-289c-231,-230 -258,-268 -290,-403c-29,-121 -4,-268 64,-378c13,-22 346,-363 740,-757l717,-718l-717,-717c-394,-395 -727,-736 -740,-758c-68,-110 -93,-257 -64,-378c32,-135 59,-173 290,-403c230,-231 268,-258 403,-290c116,-28 268,-4 372,57c20,12 361,346 758,743l723,721l727,-726c792,-789 758,-759 910,-795c124,-29 259,-5 377,66c35,21 134,112 255,235c216,218 246,260 277,392c29,121 4,268 -64,378c-13,22 -346,363 -740,758l-717,717l717,718c394,394 727,735 740,757c68,110 93,257 64,378c-32,134 -59,173 -290,404c-192,192 -218,215 -286,247c-41,20 -102,41 -135,47c-115,21 -257,-6 -360,-69c-22,-13 -363,-346 -757,-740l-718,-717l-722,721c-398,397 -739,731 -759,743c-102,60 -269,85 -381,56zM1645,3891c434,-434 805,-797 824,-806c44,-22 138,-22 182,0c19,9 390,372 824,806c744,742 792,789 825,789c32,0 50,-15 207,-172c158,-158 173,-176 173,-208c0,-33 -45,-80 -795,-830c-832,-833 -825,-825 -825,-908c0,-86 -21,-63 822,-907c750,-752 798,-803 798,-835c0,-32 -16,-50 -172,-207c-158,-158 -176,-173 -208,-173c-32,0 -81,46 -835,798c-841,840 -822,822 -905,822c-83,0 -64,18 -905,-822c-752,-750 -803,-798 -835,-798c-32,0 -50,16 -207,172c-158,158 -173,176 -173,208c0,33 46,80 799,835c790,792 799,801 811,853c9,41 9,63 0,105c-12,51 -21,61 -811,852c-751,752 -799,803 -799,835c0,32 16,50 172,207c158,158 176,173 208,173c33,0 80,-45 825,-789z"></path></g></g></g></svg>