<svg version="1.1" xmlns="http://www.w3.org/2000/svg" xmlns:xlink="http://www.w3.org/1999/xlink" width="512.000000pt" height="512.000000pt" viewBox="0,0,256,256"><g fill="#ffffff" fill-rule="nonzero" stroke="none" stroke-width="1" stroke-linecap="butt" stroke-linejoin="miter" stroke-miterlimit="10" stroke-dasharray="" stroke-dashoffset="0" font-family="none" font-weight="none" font-size="none" text-anchor="none" style="mix-blend-mode: normal"><g transform="translate(0,-0.0167) scale(0.5,0.5)"><g transform="translate(0,512) scale(0.1,-0.1)"><path d="M442,5100c-106,-28 -187,-75 -267,-155c-81,-81 -127,-161 -155,-271c-20,-76 -20,-118 -20,-2114c0,-1996 0,-2038 20,-2114c28,-110 74,-190 155,-271c81,-81 161,-127 271,-155c76,-20 118,-20 2114,-20c1996,0 2038,0 2114,20c110,28 190,74 271,155c81,81 127,161 155,271c20,76 20,118 20,2114c0,1996 0,2038 -20,2114c-28,109 -74,190 -155,271c-81,82 -160,127 -271,155c-76,20 -117,20 -2118,19c-1977,0 -2043,-1 -2114,-19zM3468,3618c66,-16 135,-87 151,-154c24,-98 -20,-193 -110,-238l-53,-26h-896h-896l-53,26c-134,67 -158,244 -45,342c24,22 61,45 82,50c57,15 1760,15 1820,0zM3498,2755c152,-64 172,-273 34,-370l-44,-30l-906,-3c-626,-2 -918,0 -944,8c-147,42 -191,250 -76,357c58,54 20,52 996,53c793,0 907,-2 940,-15zM3509,1894c90,-45 134,-140 110,-238c-16,-67 -85,-138 -151,-154c-67,-17 -1749,-17 -1816,0c-66,16 -135,87 -151,154c-24,98 20,193 110,238l53,26h896h896z"></path></g></g></g></svg>