<svg version="1.1" xmlns="http://www.w3.org/2000/svg" xmlns:xlink="http://www.w3.org/1999/xlink" width="512.000000pt" height="512.000000pt" viewBox="0,0,256,256"><g fill="#ffffff" fill-rule="nonzero" stroke="none" stroke-width="1" stroke-linecap="butt" stroke-linejoin="miter" stroke-miterlimit="10" stroke-dasharray="" stroke-dashoffset="0" font-family="none" font-weight="none" font-size="none" text-anchor="none" style="mix-blend-mode: normal"><g transform="translate(0,-0.01353) scale(0.5,0.5)"><g transform="translate(0,512) scale(0.1,-0.1)"><path d="M238,4341c-63,-20 -141,-73 -174,-118c-56,-75 -64,-105 -64,-233c0,-108 3,-126 24,-168c34,-68 100,-130 176,-166l65,-31l2275,-3c2524,-2 2329,-8 2435,63c55,38 91,79 124,142c18,36 21,59 21,163c0,104 -3,127 -21,163c-34,66 -66,102 -122,140c-106,72 88,67 -2421,66c-2159,0 -2264,-1 -2318,-18z"></path><path d="M235,2909c-79,-25 -146,-76 -192,-146l-38,-56v-147v-147l38,-56c47,-71 113,-121 196,-147c62,-20 89,-20 2321,-20c2232,0 2259,0 2321,20c83,26 149,76 196,147l38,56v147v147l-38,56c-47,71 -113,121 -196,147c-62,20 -88,20 -2325,19c-2212,0 -2262,-1 -2321,-20z"></path><path d="M255,1486c-103,-33 -187,-101 -231,-188c-21,-42 -24,-60 -24,-168c0,-104 3,-127 21,-163c49,-96 114,-152 216,-186l62,-21h2260c2193,0 2261,1 2320,19c96,30 168,91 216,183c23,43 25,59 25,168c0,104 -3,127 -21,163c-33,63 -69,104 -124,141c-106,71 90,66 -2419,65c-1797,0 -2269,-3 -2301,-13z"></path></g></g></g></svg>